DataType=double
version=3
OpenSimVersion=4.5-2023-11-26-efcdfd3eb
endheader
time	EMG01_right_gast_med	EMG02_right_glut_max	EMG03_left_gast_med	EMG04_left_glut_max	EMG05_right_glut_med	EMG06_right_bic_fem	EMG07_right_rect_fem	EMG08_right_vast_lat	EMG09_right_vast_med	EMG10_right_tens_fasc_lat	EMG11_left_glut_med	EMG12_left_bic_fem	EMG13_left_rect_fem	EMG14_left_vast_lat	EMG15_left_vast_med	EMG16_left_tens_fasc_lat
1.89	102.5479616334317	20.97763405394677	30.39501062998849	45.43538453120051	111.3176290661538	14.36657602113899	18.11236450636713	9.751818100499968	19.09895142405924	62.71245969504102	16.00104123336741	21.01629097326198	22.48264240613809	34.13950921879088	283.0024070694216	72.31659659401971
1.9	95.33556890628049	24.57655299088311	32.59619343412889	45.94546812226467	116.4242909885036	14.15952885657885	18.06499378797306	9.777916698606582	20.42514816375224	64.74885213544769	16.41093500735389	20.75698042141671	23.35176098295917	35.05937701308347	295.4692834382491	73.93684268807506
1.91	88.00509809062117	28.35061809805445	34.77629821435815	46.52767187911763	121.2527981026417	13.98870549117609	17.95238327953638	9.778548172734769	21.73963446618653	66.57363505384626	16.78641879643232	20.42088864860641	24.14265442411622	35.87004687064766	306.6647802610402	75.97866080466993
1.92	80.62602434863929	32.26831830577866	36.92341439405001	47.16754025121503	125.7368359068782	13.85910945196636	17.77599328450005	9.754301027350493	23.0232785222107	68.16554489647058	17.12465853170013	20.01222936864684	24.84647326321193	36.5622370949773	316.4651905351447	78.4212602024415
1.93	73.26604060917758	36.29585742012821	39.02601658493747	47.85004361151181	129.814321914985	13.77519836315765	17.53794204086776	9.706229228897882	24.25767670667381	69.50733463748256	17.42332454848986	19.5361048938217	25.45528438570511	37.12782896075389	324.7643389097706	81.23701052608391
1.94	65.99004699566044	40.39743923485545	41.0732792866972	48.55977682212892	133.4284911892742	13.74079313780968	17.2409592298706	9.635856070256297	25.42539802872798	70.58591986516892	17.68063770791877	18.99843667914664	25.96223761978533	37.56000581033555	331.4755564049116	84.391734002253
1.95	58.85924938209278	44.53560738675778	43.05540129018897	49.28116095614625	136.5289219644843	13.75900954551431	16.88833981331423	9.545177995579255	26.51022781511127	71.39240671153556	17.89540325069189	18.40588128042828	26.36172104699107	37.85337921504033	336.5331784384144	87.84511780454531
1.96	51.93037914495994	48.67163964901268	44.96392931078936	49.99864584762399	139.0724655655046	13.83221229744501	16.48389949483358	9.436667531437344	27.49740655535569	71.92200368562813	18.06703080280904	17.76573464553974	26.649499316563	38.00409891131591	339.8934995590155	91.55124315601725
1.97	45.25504186826145	52.76599459407122	46.79206902534813	50.6969113784512	141.0240453393537	13.96199140845568	16.03193227016137	9.31327425379852	28.37385907079582	72.17382850277531	18.19553911530542	17.08582771634445	26.8228288565252	38.00994297009974	341.5351597013456	95.45922414854398
1.98	38.87919881739098	56.7788064639449	48.53497093886242	51.3610655841465	142.3572939651465	14.14916018248201	15.53716975192466	9.178422545310346	29.12840852207783	72.15062789723214	18.28154454020351	16.37441622240154	26.88054390686479	37.87038450287307	341.4589831688265	99.51394601218976
1.99	32.84278149420498	60.67042166661633	50.18997881571381	51.97683774153838	143.0550066293626	14.39377365066358	15.00474125826895	9.03600472669789	29.75196930087684	71.8584318046284	18.32623284097332	15.64006728619485	26.82310785006371	37.58663108969011	339.6873265344215	103.6568899181333
2	27.1794365508925	64.40196766872239	51.75682966576304	52.53076436559954	143.1093974147414	14.69516566760545	14.44013307253492	8.890367970032464	30.23771253866928	71.30616368759453	18.3313145853664	14.89154505378907	26.65262536825069	37.16163301563422	336.2630090609752	107.8270295077175
2.01	21.91639576785009	67.93594236708304	53.23779594972083	53.01036538633191	142.5221562694778	15.05200219209364	13.84914495205474	8.746293275009632	30.58119779623433	70.50522758949573	18.29896509687972	14.1376970776733	26.37281243438965	36.60005661659722	331.247904216928	111.9617827974888
2.02	17.07446367332248	71.23680953562715	54.63776255125776	53.40430700517146	141.304312987788	15.46234761827185	13.23784209661386	8.608964777405536	30.78046450366712	69.46909071590477	18.23175081067025	13.38734266529428	25.98892313309286	35.90822011785077	324.7212689619107	115.9980012638088
2.03	12.66811369918976	74.27158380173539	55.96423344387664	53.7025472554161	139.475921715491	15.92374042138358	12.61250138038546	8.483927773308928	30.83607692961337	68.21287801835582	18.13254480260139	12.64916394578525	25.50763492121924	35.09399149412484	316.7778806659942	119.872975893396
2.04	8.705682526264066	77.01038680614911	57.22726587118515	53.8964602269304	137.0655837389121	16.43327383455928	11.97955136366414	8.377034098164755	30.75111704792876	66.75299222972787	18.00443502693455	11.93160010520806	24.93689676395928	34.166650499235	307.5260417667926	123.5254386685866
2.05	5.189651419114361	79.42695492176891	58.43933244059569	53.97893511668899	134.1098274514729	16.98767687295915	11.34550607100359	8.294373965829665	30.53112110666659	65.10676931091444	17.85062923873303	11.24274516553931	24.28574676827728	33.13671927555551	297.0855021620321	126.8965377299775
2.06	2.117002790101759	81.49907880581151	59.61511280514798	53.94444667447764	130.6523631173853	17.58339107233076	10.71689275340156	8.242194052978068	30.18395831248609	63.29217580961005	17.67436062951353	10.59024981591159	23.56410703301936	32.01576749270723	285.5853399867572	129.9307650936825
2.07	-0.5203600923178242	83.20895685003541	60.77121652265588	53.78909449106991	126.7432279688512	18.21663907950327	10.10017414934308	8.22680235470043	29.71965343876909	61.32755153084917	17.47879790171463	9.981228046527718	22.78256365863041	30.81619881794592	273.1618328313898	132.5768177271195
2.08	-2.735142427001958	84.54344838406395	61.92583827938804	53.51061021609345	122.4378358511382	18.88348256049765	9.501666318878561	8.254460989118787	29.15015844210668	59.23139814279752	17.26696296386579	9.422169563475412	21.95213957588795	29.55102580290991	259.9563443471937	134.7883769667402
2.09	-4.544148269989998	85.49421788025717	63.09834727735505	53.10833385565756	117.795945844821	19.57986828180446	8.927453792088215	8.331268692767363	28.48908058522184	57.02221166878413	17.04165879644187	8.918859098086683	21.08406725657448	28.23364011492784	246.1132467150988	136.5247970849562
2.1	-5.967743680827138	86.05776776160513	64.30881511700399	52.58316183594156	112.880566203885	20.30166236856487	8.383304244924933	8.46303526619846	27.75137591337542	54.71835415115955	16.80540942946328	8.47630374535572	20.18956757846616	26.87758456053643	231.7778976615777	137.7516987917689
2.11	-7.029303808378798	86.23536363907222	65.57749096206399	51.93746996210032	107.7568131157677	21.04467370236935	7.874585062566092	8.655150685277761	26.95301749260391	52.33795726957361	16.56041342174445	8.098669394054758	19.2796402618465	25.49633259618857	217.0946905431752	138.4414656456837
2.12	-7.754654472279149	86.0328608376992	66.92423792417655	51.1750142184833	102.4907471022252	21.80466828320435	7.406184054041762	8.912451985564692	26.11064799672925	49.89884866117034	16.30851173087299	7.789227214226435	18.36487045860966	24.1030800543479	202.2051966029018	138.5736406708148
2.13	-8.17151807702421	85.46044477455379	68.36794867673963	50.30081244223167	97.14821231402181	22.5773770973538	6.98243636815706	9.23909138013663	25.24122618229671	47.4184904521862	16.05117040086707	7.550311120864192	17.45525525673886	22.7105527559727	187.2464195283027	138.1352177840315
2.14	-8.308972880060994	84.53230035708671	69.92596036152463	49.32101056408553	91.79370513395206	23.35850050296588	6.607059403036819	9.638409354362695	24.36167643168455	44.91391940146504	15.78947804564403	7.383287147498165	16.56005302897349	21.33083268690858	172.3491835811366	137.1208191067981
2.15	-8.19693372015765	83.26622660025377	71.61348917417351	48.24273784959917	86.48929821667434	24.14371227338515	6.283097220293818	10.11281662256231	23.48854984716776	42.40167944394082	15.5241576299297	7.288535676058554	15.68765770475864	19.9752045876555	157.6366770690189	135.53274661641
2.16	-7.865661335319481	81.68321167590217	73.44310429501887	47.0739557914878	81.29364427184188	24.92866618504513	6.012875674707558	10.66368879775383	22.63770445078307	39.89774045563451	15.25559153755363	7.265447402163892	14.84549922168596	18.65402416387742	143.2231718984765	133.380896801574
2.17	-7.345306389327239	79.8069814654081	75.4242594562602	45.82330496556002	76.26108079797679	25.709007459728	5.797969176333489	11.29127742451599	21.82401097634036	37.41740118071898	14.98385841329854	7.31243374386724	14.03997066532898	17.37660866671537	129.2129368297951	130.6825310688692
2.18	-6.665493254715593	77.66353281909315	77.56289844648418	44.49995367723146	71.44085303756759	26.48039055659254	5.639179743933911	11.99464068193656	21.06108957184114	34.97517832583122	14.70877980849154	7.426952167390088	13.27638194712598	16.15115031534486	115.6993571056218	127.4619020468826
2.19	-5.854947441229322	75.28066153731953	79.86114820079811	43.11345187220586	66.87646803046113	27.23850379382728	5.536528784124568	12.77159662574773	20.36108153923658	32.58468689404562	14.42997425909292	7.605546663497443	12.55893927476792	14.98465288843396	102.7642674027174	123.7497445916027
2.2	-4.941169335043092	72.68749395658459	82.31710988865574	41.67359342107363	62.60518816201628	27.97910014183915	5.489261817879919	13.61870135731383	19.73445912095984	30.25851850811395	14.14691609447831	7.843903389191008	11.89074913120791	13.88289169284956	90.4774995346263	119.5826475456238
2.21	-3.950155667846419	69.91402959406172	84.92475481871392	40.19028916226602	58.65766837127442	28.69803252464525	5.495866171323306	14.5312540077205	19.18987533965304	28.00812477406473	13.85899609949531	8.136921275481301	11.27384503313596	12.85039692452274	78.89664134767975	115.0023264769419
2.22	-2.90616893673985	66.99070092415681	87.67392825678866	38.67345188334692	55.05773738812152	29.39129143169531	5.554101461056913	15.50332990007032	18.73405499908387	25.84371201990869	13.56558127603156	8.478797154528287	10.70923500565326	11.89046010244189	68.06699892191126	110.0548191320789
2.23	-1.831553961350872	63.94795530649659	90.55046050423834	37.13289306582267	51.82232004608684	30.05504274528367	5.661042531400865	16.52784267031599	18.3717271578914	23.77415255435788	13.26607144838914	8.863124647159994	10.19696743439842	11.00516277113021	58.02175070274964	104.7896256836471
2.24	-0.7465999736633478	60.81586315710958	93.53638093988091	35.57823025809203	48.96149488086927	30.68566431951813	5.813134322861752	17.59663545804579	18.10559869928171	21.80691633211256	12.95995117537327	9.283005672734689	9.736212684377129	10.19542608141877	48.7822795299013	99.2588156954679
2.25	0.3305539366159971	57.62375551828796	96.61022767640632	34.01880366305341	46.47867894643393	31.2797806780084	6.006257955440809	18.70060053044923	17.93636802694103	19.94802572980997	12.6468360395774	9.731173019369706	9.325357635185554	9.461079267201283	40.35866647287202	93.51612278416073
2.26	1.383972630885072	54.39989347274054	99.7474438149267	32.46360070397274	44.37093012713303	31.83429577908053	6.235807097841577	19.82982591258938	17.86277741505578	18.20203502392158	12.32651265431408	10.20012196898675	8.962110145107841	8.800944531982569	32.75032884850911	87.61604634351686
2.27	2.399940940740511	51.17117152889344	102.9208514468353	30.92118754830709	42.62935611160906	32.34642382032212	6.496773466441407	20.9737668001383	17.88170214724118	16.57203510777227	11.9989717248047	10.68224853291665	8.643610444175863	8.212935515272889	25.94678378657079	81.61297809353948
2.28	3.366945128553349	47.96285701495793	106.1011960318093	29.39964676177623	41.23961839499088	32.81371766252018	6.783840055233965	22.1214387467695	17.98827428960833	15.05968305317036	11.66443346965088	11.16999146131051	8.366546555302675	7.694166356909438	19.92851801014876	75.56036982843855
2.29	4.275623219323712	44.79836745501976	109.257755150192	27.9065206479697	40.18251895087629	33.23409414896599	7.091480445262672	23.26162885605599	18.17603870157376	13.6652553952913	11.32336484364795	11.65597491179297	8.127271043076881	7.241068385517863	14.6679438595265	69.50995716163449
